<svg class="lds-gear" width="70px"  height="70px"  xmlns="http://www.w3.org/2000/svg" xmlns:xlink="http://www.w3.org/1999/xlink" viewBox="0 0 100 100" preserveAspectRatio="xMidYMid" style="background: none;"><g transform="translate(50 50)">
<g transform="rotate(68.5543)">
<animateTransform attributeName="transform" type="rotate" values="0;360" keyTimes="0;1" dur="3.5s" repeatCount="indefinite"></animateTransform><path d="M29.287369291214944 -6.5 L39.287369291214944 -6.5 L39.287369291214944 6.5 L29.287369291214944 6.5 A30 30 0 0 1 27.514583617028922 11.956073284382445 L27.514583617028922 11.956073284382445 L35.60475356077839 17.833925807307175 L27.963545280976245 28.351146734181498 L19.873375337226772 22.473294211256764 A30 30 0 0 1 15.232162187438878 25.845332946115384 L15.232162187438878 25.845332946115384 L18.322332131188354 35.35589810906692 L5.958597419351353 39.37311903594124 L2.868427475601878 29.8625538729897 A30 30 0 0 1 -2.8684274756018744 29.8625538729897 L-2.8684274756018744 29.8625538729897 L-5.958597419351348 39.37311903594124 L-18.32233213118834 35.35589810906693 L-15.232162187438867 25.845332946115388 A30 30 0 0 1 -19.873375337226772 22.47329421125676 L-19.873375337226772 22.47329421125676 L-27.963545280976245 28.35114673418149 L-35.60475356077839 17.83392580730719 L-27.51458361702892 11.956073284382455 A30 30 0 0 1 -29.287369291214944 6.499999999999997 L-29.287369291214944 6.499999999999997 L-39.287369291214944 6.499999999999998 L-39.287369291214944 -6.499999999999989 L-29.287369291214944 -6.49999999999999 A30 30 0 0 1 -27.514583617028922 -11.956073284382448 L-27.514583617028922 -11.956073284382448 L-35.6047535607784 -17.83392580730718 L-27.963545280976255 -28.351146734181487 L-19.87337533722678 -22.473294211256757 A30 30 0 0 1 -15.232162187438874 -25.845332946115384 L-15.232162187438874 -25.845332946115384 L-18.32233213118835 -35.35589810906692 L-5.958597419351365 -39.37311903594124 L-2.8684274756018886 -29.8625538729897 A30 30 0 0 1 2.868427475601877 -29.8625538729897 L2.868427475601877 -29.8625538729897 L5.958597419351349 -39.37311903594124 L18.322332131188336 -35.35589810906693 L15.232162187438863 -25.84533294611539 A30 30 0 0 1 19.873375337226772 -22.473294211256764 L19.873375337226772 -22.473294211256764 L27.963545280976245 -28.351146734181498 L35.60475356077839 -17.833925807307192 L27.51458361702892 -11.956073284382459 A30 30 0 0 1 29.287369291214944 -6.500000000000001 M0 -10A10 10 0 1 0 0 10 A10 10 0 1 0 0 -10" fill="#000000"></path></g></g></svg>